<svg xmlns="http://www.w3.org/2000/svg" width="530.662" height="635.218" viewBox="0 0 530.662 635.218">
  <g id="Group_146" data-name="Group 146" transform="translate(-215 -4095.391)">
    <path id="Path_52" data-name="Path 52" d="M123.693,59a78.371,78.371,0,1,1-78.371,78.371A78.376,78.376,0,0,1,123.693,59" transform="translate(356.622 4279.754)" fill="#fff"/>
    <path id="Path_53" data-name="Path 53" d="M123.693,0A78.371,78.371,0,1,1,45.322,78.371,78.376,78.376,0,0,1,123.693,0" transform="translate(356.622 4095.391)" fill="#fff"/>
    <path id="Path_54" data-name="Path 54" d="M123.693,116a78.371,78.371,0,1,1-78.371,78.371A78.376,78.376,0,0,1,123.693,116" transform="translate(356.622 4457.867)" fill="#fff"/>
    <path id="Path_55" data-name="Path 55" d="M265.315,13.176c146.545,0,265.348,118.79,265.348,265.335a265.348,265.348,0,0,1-117.82,220.565,261.705,261.705,0,0,1-147.527,44.766C118.781,543.838,0,425.044,0,278.511S118.79,13.2,265.315,13.2Zm0,493.523a224.686,224.686,0,0,0,126.693-38.36c104.869-69.944,133.181-211.655,63.237-316.52S243.585,18.641,138.721,88.585,5.544,300.241,75.492,405.105A228.227,228.227,0,0,0,265.315,506.7" transform="translate(215 4136.564)" fill="#fff"/>
  </g>
</svg>
