<svg id="logo" xmlns="http://www.w3.org/2000/svg" xmlns:xlink="http://www.w3.org/1999/xlink" width="133.643" height="43.725" viewBox="0 0 133.643 43.725">
  <defs>
    <clipPath id="clip-path">
      <rect id="Rectangle_24" data-name="Rectangle 24" width="133.643" height="43.725" fill="blue"/>
    </clipPath>
  </defs>
  <g id="Group_112" data-name="Group 112" transform="translate(0 0)">
    <g id="Group_111" data-name="Group 111" clip-path="url(#clip-path)">
      <path id="Path_26" data-name="Path 26" d="M168.271,13.133a3.984,3.984,0,0,1-2.419-.728,4.545,4.545,0,0,1-1.521-2.047,8.243,8.243,0,0,1-.526-3.067,8.3,8.3,0,0,1,.526-3.083,4.572,4.572,0,0,1,1.53-2.055,3.964,3.964,0,0,1,2.411-.737,4.142,4.142,0,0,1,2.913,1,4.089,4.089,0,0,1,1.262,2.695h-1.894a2.688,2.688,0,0,0-.72-1.481,2.1,2.1,0,0,0-1.578-.591,2.231,2.231,0,0,0-1.99,1.133,5.844,5.844,0,0,0-.712,3.124,5.765,5.765,0,0,0,.712,3.1,2.234,2.234,0,0,0,1.99,1.125,2.166,2.166,0,0,0,1.586-.542,2.6,2.6,0,0,0,.712-1.432h1.894a4.336,4.336,0,0,1-1.311,2.63,4.082,4.082,0,0,1-2.865.963" transform="translate(-117.295 -1.014)" fill="blue"/>
      <path id="Path_27" data-name="Path 27" d="M203.54,21.46a4.071,4.071,0,0,1-2.055-.518,3.685,3.685,0,0,1-1.424-1.465,4.563,4.563,0,0,1-.518-2.225,4.563,4.563,0,0,1,.518-2.225,3.688,3.688,0,0,1,1.424-1.465,4.1,4.1,0,0,1,2.072-.518,4.057,4.057,0,0,1,2.063.518,3.646,3.646,0,0,1,1.408,1.465,4.625,4.625,0,0,1,.51,2.225,4.565,4.565,0,0,1-.518,2.225,3.7,3.7,0,0,1-1.416,1.465,4.06,4.06,0,0,1-2.064.518m0-1.635a2.375,2.375,0,0,0,1.133-.275,2.041,2.041,0,0,0,.834-.85,2.984,2.984,0,0,0,.315-1.449,2.974,2.974,0,0,0-.315-1.456,2.071,2.071,0,0,0-.825-.842,2.331,2.331,0,0,0-1.125-.275,2.377,2.377,0,0,0-1.133.275,2.056,2.056,0,0,0-.833.842,2.973,2.973,0,0,0-.315,1.456,2.542,2.542,0,0,0,.672,1.95,2.264,2.264,0,0,0,1.594.623" transform="translate(-142.886 -9.34)" fill="blue"/>
      <path id="Path_28" data-name="Path 28" d="M232.146,21.265V13.238h1.424l.146.939h.081a1.893,1.893,0,0,1,.648-.817,1.722,1.722,0,0,1,1.036-.315,1.8,1.8,0,0,1,1.02.291,1.711,1.711,0,0,1,.647.842h.065a1.917,1.917,0,0,1,.664-.809,1.871,1.871,0,0,1,1.117-.324,1.62,1.62,0,0,1,1.351.583,2.574,2.574,0,0,1,.461,1.635v6h-1.651V15.6a1.3,1.3,0,0,0-.2-.769.732.732,0,0,0-.639-.283.9.9,0,0,0-.72.34,1.451,1.451,0,0,0-.283.955v5.422h-1.667V15.6a1.34,1.34,0,0,0-.194-.769.71.71,0,0,0-.631-.283.92.92,0,0,0-.728.34,1.423,1.423,0,0,0-.292.955v5.422Z" transform="translate(-166.233 -9.34)" fill="blue"/>
      <path id="Path_29" data-name="Path 29" d="M268.625,21.265V13.238h1.424l.146.939h.081a1.894,1.894,0,0,1,.648-.817,1.722,1.722,0,0,1,1.036-.315,1.8,1.8,0,0,1,1.02.291,1.711,1.711,0,0,1,.647.842h.065a1.917,1.917,0,0,1,.664-.809,1.871,1.871,0,0,1,1.117-.324,1.62,1.62,0,0,1,1.351.583,2.573,2.573,0,0,1,.461,1.635v6h-1.651V15.6a1.3,1.3,0,0,0-.2-.769.732.732,0,0,0-.639-.283.9.9,0,0,0-.72.34,1.45,1.45,0,0,0-.283.955v5.422h-1.667V15.6a1.34,1.34,0,0,0-.194-.769.71.71,0,0,0-.631-.283.92.92,0,0,0-.728.34,1.423,1.423,0,0,0-.292.955v5.422Z" transform="translate(-192.354 -9.34)" fill="blue"/>
      <path id="Path_30" data-name="Path 30" d="M308.522,21.949a2.718,2.718,0,0,1-2.209-.9,3.974,3.974,0,0,1-.753-2.614v-4.71h1.716v4.5a2.482,2.482,0,0,0,.429,1.545,1.558,1.558,0,0,0,1.319.558,2.022,2.022,0,0,0,1.489-.6,2.345,2.345,0,0,0,.6-1.731V13.728h1.716v8.027h-1.489l-.146-1.2h-.081a2.671,2.671,0,0,1-1,.987,3.047,3.047,0,0,1-1.586.4" transform="translate(-218.802 -9.83)" fill="blue"/>
      <path id="Path_31" data-name="Path 31" d="M340.045,21.265V13.238h1.489l.146,1.2h.081a2.67,2.67,0,0,1,1-.987,3.013,3.013,0,0,1,1.57-.4,2.728,2.728,0,0,1,2.218.89,4,4,0,0,1,.745,2.622v4.71H345.58v-4.5a2.511,2.511,0,0,0-.421-1.554,1.565,1.565,0,0,0-1.327-.55,2,2,0,0,0-1.481.6,2.364,2.364,0,0,0-.591,1.732v4.273Z" transform="translate(-243.496 -9.34)" fill="blue"/>
      <path id="Path_32" data-name="Path 32" d="M374.985,12.327V10.838h2.525V6.323a.465.465,0,0,0-.518-.534h-1.781V4.3H377.3a2,2,0,0,1,1.465.461,2,2,0,0,1,.461,1.465v4.612h2.524v1.489Zm3.221-9.258a1.315,1.315,0,0,1-.947-.364,1.193,1.193,0,0,1-.38-.9,1.168,1.168,0,0,1,.38-.89,1.332,1.332,0,0,1,.947-.356,1.354,1.354,0,0,1,.963.356,1.17,1.17,0,0,1,.38.89,1.2,1.2,0,0,1-.38.9,1.336,1.336,0,0,1-.963.364" transform="translate(-268.515 -0.402)" fill="blue"/>
      <path id="Path_33" data-name="Path 33" d="M412.585,16.449a2.858,2.858,0,0,1-1.877-.574,2.538,2.538,0,0,1-.7-2.047V9.878h-2.023V8.422h1.2a.888.888,0,0,0,.971-.809l.243-1.295h1.327v2.1H414.9V9.878h-3.172V13.8a1.138,1.138,0,0,0,.283.882,1.482,1.482,0,0,0,.979.251h1.877v1.521Z" transform="translate(-292.148 -4.524)" fill="blue"/>
      <path id="Path_34" data-name="Path 34" d="M442.1,25.316l1.91-4.224h-.469l-3.124-7.364h1.861l2.4,5.875,2.541-5.875h1.8l-5.1,11.588Z" transform="translate(-315.372 -9.83)" fill="blue"/>
      <path id="Path_35" data-name="Path 35" d="M169.658,68.132a4.737,4.737,0,0,1-2.1-.437,3.36,3.36,0,0,1-1.408-1.246,3.638,3.638,0,0,1-.526-1.926h1.812a2.053,2.053,0,0,0,2.2,2.072,2.258,2.258,0,0,0,1.489-.445,1.434,1.434,0,0,0,.534-1.157,1.55,1.55,0,0,0-.315-1,2.723,2.723,0,0,0-.979-.712,14.378,14.378,0,0,0-1.716-.656,4.336,4.336,0,0,1-2.072-1.254,2.977,2.977,0,0,1-.664-1.966,2.708,2.708,0,0,1,.971-2.168,4.648,4.648,0,0,1,5.325.024,3.011,3.011,0,0,1,1.036,2.355h-1.829a1.514,1.514,0,0,0-.227-.785,1.816,1.816,0,0,0-.647-.631,1.991,1.991,0,0,0-1.036-.251,2.026,2.026,0,0,0-1.279.365,1.209,1.209,0,0,0-.518,1.028,1.43,1.43,0,0,0,.631,1.238,8.234,8.234,0,0,0,2.055.915,7.729,7.729,0,0,1,1.578.7,3.173,3.173,0,0,1,1.084,1.051,3.359,3.359,0,0,1-.057,3.27,3.207,3.207,0,0,1-1.3,1.173,4.43,4.43,0,0,1-2.047.437" transform="translate(-118.601 -40.397)" fill="blue"/>
      <path id="Path_36" data-name="Path 36" d="M204.224,76.459a3.876,3.876,0,0,1-2-.517,3.625,3.625,0,0,1-1.384-1.465,4.682,4.682,0,0,1-.5-2.225,4.58,4.58,0,0,1,.51-2.217,3.714,3.714,0,0,1,3.375-1.991,3.82,3.82,0,0,1,2.484.769,3.458,3.458,0,0,1,1.206,2.112h-1.8a1.612,1.612,0,0,0-.656-.922,2.164,2.164,0,0,0-1.254-.34,2.02,2.02,0,0,0-1.043.291,2.1,2.1,0,0,0-.793.866,3.554,3.554,0,0,0,0,2.856,2.137,2.137,0,0,0,.793.882,1.977,1.977,0,0,0,1.043.3,2.08,2.08,0,0,0,1.246-.34,1.809,1.809,0,0,0,.664-.939h1.8a3.817,3.817,0,0,1-1.262,2.1,3.684,3.684,0,0,1-2.428.776" transform="translate(-143.457 -48.724)" fill="blue"/>
      <path id="Path_37" data-name="Path 37" d="M235.907,67.326V65.837h2.525V61.322a.465.465,0,0,0-.518-.534h-1.781V59.3h2.088a1.662,1.662,0,0,1,1.926,1.926v4.612h2.524v1.489Zm3.221-9.257a1.315,1.315,0,0,1-.947-.364,1.193,1.193,0,0,1-.381-.9,1.168,1.168,0,0,1,.381-.89,1.332,1.332,0,0,1,.947-.356,1.354,1.354,0,0,1,.963.356,1.17,1.17,0,0,1,.38.89,1.2,1.2,0,0,1-.38.9,1.337,1.337,0,0,1-.963.364" transform="translate(-168.926 -39.785)" fill="blue"/>
      <path id="Path_38" data-name="Path 38" d="M272.4,76.46a3.966,3.966,0,0,1-2.055-.526,3.676,3.676,0,0,1-1.392-1.465,4.569,4.569,0,0,1-.5-2.185,4.762,4.762,0,0,1,.493-2.217,3.638,3.638,0,0,1,1.392-1.489,3.992,3.992,0,0,1,2.08-.534,3.712,3.712,0,0,1,2.007.526,3.613,3.613,0,0,1,1.3,1.4,4.063,4.063,0,0,1,.461,1.926v.348c0,.124-.006.261-.016.413h-6.037a2.385,2.385,0,0,0,.728,1.691,2.216,2.216,0,0,0,1.521.574,2.048,2.048,0,0,0,1.206-.315,1.834,1.834,0,0,0,.656-.866h1.732a3.67,3.67,0,0,1-1.214,1.934,3.519,3.519,0,0,1-2.363.785m0-6.927a2.234,2.234,0,0,0-1.408.478,2.185,2.185,0,0,0-.793,1.335h4.273a1.882,1.882,0,0,0-.631-1.311,2.093,2.093,0,0,0-1.44-.5" transform="translate(-192.232 -48.724)" fill="blue"/>
      <path id="Path_39" data-name="Path 39" d="M303.565,76.266V68.238h1.489l.146,1.2h.081a2.67,2.67,0,0,1,1-.987,3.012,3.012,0,0,1,1.57-.4,2.727,2.727,0,0,1,2.217.89,4,4,0,0,1,.745,2.622v4.71H309.1v-4.5a2.512,2.512,0,0,0-.421-1.554,1.565,1.565,0,0,0-1.327-.55,2,2,0,0,0-1.481.6,2.363,2.363,0,0,0-.591,1.732v4.273Z" transform="translate(-217.374 -48.724)" fill="blue"/>
      <path id="Path_40" data-name="Path 40" d="M341.022,76.459a3.875,3.875,0,0,1-2-.517,3.624,3.624,0,0,1-1.384-1.465,4.684,4.684,0,0,1-.5-2.225,4.579,4.579,0,0,1,.51-2.217,3.713,3.713,0,0,1,3.374-1.991,3.822,3.822,0,0,1,2.484.769,3.458,3.458,0,0,1,1.206,2.112h-1.8A1.611,1.611,0,0,0,342.26,70a2.164,2.164,0,0,0-1.254-.34,2.019,2.019,0,0,0-1.043.291,2.093,2.093,0,0,0-.793.866,3.552,3.552,0,0,0,0,2.856,2.135,2.135,0,0,0,.793.882,1.975,1.975,0,0,0,1.043.3,2.08,2.08,0,0,0,1.246-.34,1.807,1.807,0,0,0,.664-.939h1.8a3.815,3.815,0,0,1-1.262,2.1,3.683,3.683,0,0,1-2.427.776" transform="translate(-241.414 -48.724)" fill="blue"/>
      <path id="Path_41" data-name="Path 41" d="M375,76.46a3.965,3.965,0,0,1-2.055-.526,3.674,3.674,0,0,1-1.392-1.465,4.566,4.566,0,0,1-.5-2.185,4.759,4.759,0,0,1,.493-2.217,3.637,3.637,0,0,1,1.392-1.489,3.993,3.993,0,0,1,2.08-.534,3.712,3.712,0,0,1,2.007.526,3.615,3.615,0,0,1,1.3,1.4,4.063,4.063,0,0,1,.461,1.926v.348c0,.124-.006.261-.016.413h-6.036a2.386,2.386,0,0,0,.728,1.691,2.217,2.217,0,0,0,1.521.574,2.047,2.047,0,0,0,1.206-.315,1.834,1.834,0,0,0,.656-.866h1.732a3.672,3.672,0,0,1-1.214,1.934A3.519,3.519,0,0,1,375,76.46m0-6.927a2.234,2.234,0,0,0-1.408.478,2.185,2.185,0,0,0-.793,1.335h4.273a1.88,1.88,0,0,0-.631-1.311,2.093,2.093,0,0,0-1.44-.5" transform="translate(-265.7 -48.724)" fill="blue"/>
    </g>
  </g>
  <path id="Path_42" data-name="Path 42" d="M164.773,123.429V112.1h1.813l2.347,5.114,2.347-5.114h1.813v11.329h-1.635v-8.06l-1.845,4.046h-1.359l-1.845-4.03v8.043Z" transform="translate(-117.989 -80.271)" fill="blue"/>
  <g id="Group_114" data-name="Group 114" transform="translate(0 0)">
    <g id="Group_113" data-name="Group 113" clip-path="url(#clip-path)">
      <path id="Path_43" data-name="Path 43" d="M203.644,131.949a2.718,2.718,0,0,1-2.209-.9,3.972,3.972,0,0,1-.753-2.614v-4.71H202.4v4.5a2.483,2.483,0,0,0,.429,1.545,1.558,1.558,0,0,0,1.319.558,2.021,2.021,0,0,0,1.489-.6,2.345,2.345,0,0,0,.6-1.731v-4.273h1.715v8.027H206.46l-.146-1.2h-.081a2.672,2.672,0,0,1-1,.987,3.045,3.045,0,0,1-1.586.4" transform="translate(-143.702 -88.598)" fill="blue"/>
      <path id="Path_44" data-name="Path 44" d="M238.988,131.46a3.95,3.95,0,0,1-2.525-.745,2.788,2.788,0,0,1-1.068-1.974h1.764a1.414,1.414,0,0,0,.574.923,2.075,2.075,0,0,0,1.271.356,1.9,1.9,0,0,0,1.173-.316.913.913,0,0,0,.413-.736.842.842,0,0,0-.494-.842,5.059,5.059,0,0,0-1.448-.34,5.493,5.493,0,0,1-1.5-.38,2.6,2.6,0,0,1-1.06-.777,1.94,1.94,0,0,1-.388-1.238,2.055,2.055,0,0,1,.825-1.7,3.639,3.639,0,0,1,2.3-.648,3.51,3.51,0,0,1,2.282.664,2.623,2.623,0,0,1,.938,1.813H240.4a1.049,1.049,0,0,0-.5-.769,1.955,1.955,0,0,0-1.084-.283,1.92,1.92,0,0,0-1.052.251.754.754,0,0,0-.388.655q0,.874,1.877,1.068a7.554,7.554,0,0,1,1.586.332,2.36,2.36,0,0,1,1.1.728,2.13,2.13,0,0,1,.4,1.384,2.078,2.078,0,0,1-.413,1.311,2.923,2.923,0,0,1-1.181.923,4.235,4.235,0,0,1-1.756.34" transform="translate(-168.559 -88.108)" fill="blue"/>
      <path id="Path_45" data-name="Path 45" d="M272.4,131.46a3.966,3.966,0,0,1-2.055-.526,3.675,3.675,0,0,1-1.392-1.465,4.569,4.569,0,0,1-.5-2.185,4.762,4.762,0,0,1,.493-2.217,3.638,3.638,0,0,1,1.392-1.489,3.992,3.992,0,0,1,2.08-.534,3.712,3.712,0,0,1,2.007.526,3.613,3.613,0,0,1,1.3,1.4,4.063,4.063,0,0,1,.461,1.926v.348c0,.124-.006.262-.016.413h-6.037a2.385,2.385,0,0,0,.728,1.691,2.216,2.216,0,0,0,1.521.574,2.048,2.048,0,0,0,1.206-.315,1.834,1.834,0,0,0,.656-.866h1.732a3.67,3.67,0,0,1-1.214,1.934,3.519,3.519,0,0,1-2.363.785m0-6.927a2.233,2.233,0,0,0-1.408.478,2.185,2.185,0,0,0-.793,1.335h4.273a1.882,1.882,0,0,0-.631-1.311,2.093,2.093,0,0,0-1.44-.5" transform="translate(-192.232 -88.108)" fill="blue"/>
      <path id="Path_46" data-name="Path 46" d="M306.242,131.949a2.718,2.718,0,0,1-2.209-.9,3.973,3.973,0,0,1-.753-2.614v-4.71H305v4.5a2.481,2.481,0,0,0,.429,1.545,1.558,1.558,0,0,0,1.319.558,2.022,2.022,0,0,0,1.489-.6,2.345,2.345,0,0,0,.6-1.731v-4.273h1.716v8.027h-1.489l-.146-1.2h-.081a2.671,2.671,0,0,1-1,.987,3.047,3.047,0,0,1-1.586.4" transform="translate(-217.169 -88.598)" fill="blue"/>
      <path id="Path_47" data-name="Path 47" d="M334.744,131.266v-8.027h1.424l.146.939h.081a1.894,1.894,0,0,1,.648-.817,1.722,1.722,0,0,1,1.036-.315,1.8,1.8,0,0,1,1.02.291,1.71,1.71,0,0,1,.647.842h.065a1.918,1.918,0,0,1,.664-.809,1.871,1.871,0,0,1,1.117-.324,1.62,1.62,0,0,1,1.351.583,2.574,2.574,0,0,1,.461,1.635v6h-1.651V125.6a1.3,1.3,0,0,0-.2-.769.732.732,0,0,0-.639-.283.9.9,0,0,0-.72.34,1.451,1.451,0,0,0-.283.955v5.422H338.24V125.6a1.34,1.34,0,0,0-.194-.769.71.71,0,0,0-.631-.283.92.92,0,0,0-.728.34,1.423,1.423,0,0,0-.292.955v5.422Z" transform="translate(-239.7 -88.108)" fill="blue"/>
      <path id="Path_48" data-name="Path 48" d="M50.717,59a5.395,5.395,0,1,1-5.395,5.395A5.4,5.4,0,0,1,50.717,59" transform="translate(-32.454 -42.248)" fill="blue"/>
      <path id="Path_49" data-name="Path 49" d="M50.717,0a5.395,5.395,0,1,1-5.395,5.395A5.4,5.4,0,0,1,50.717,0" transform="translate(-32.454)" fill="blue"/>
      <path id="Path_50" data-name="Path 50" d="M50.717,116a5.395,5.395,0,1,1-5.395,5.395A5.4,5.4,0,0,1,50.717,116" transform="translate(-32.454 -83.064)" fill="blue"/>
      <path id="Path_51" data-name="Path 51" d="M18.263,13.176A18.265,18.265,0,0,1,28.418,46.623,18.014,18.014,0,0,1,18.263,49.7a18.264,18.264,0,0,1,0-36.527Zm0,33.972a15.466,15.466,0,0,0,8.721-2.641,15.71,15.71,0,1,0-8.721,2.641" transform="translate(0 -9.435)" fill="blue"/>
    </g>
  </g>
</svg>
